<?xml version="1.0" encoding="UTF-8"?>
<!DOCTYPE svg PUBLIC "-//W3C//DTD SVG 1.1//EN" "http://www.w3.org/Graphics/SVG/1.1/DTD/svg11.dtd">
<!-- Creator: CorelDRAW X7 -->
<svg xmlns="http://www.w3.org/2000/svg" xml:space="preserve" width="512px" height="512px" version="1.1" style="shape-rendering:geometricPrecision; text-rendering:geometricPrecision; image-rendering:optimizeQuality; fill-rule:evenodd; clip-rule:evenodd"
viewBox="0 0 512 512"
 xmlns:xlink="http://www.w3.org/1999/xlink">
 <defs>
  <style type="text/css">
   <![CDATA[
    .fil0 {fill:white}
    .fil1 {fill:#1A73E8;fill-rule:nonzero}
   ]]>
  </style>
 </defs>
 <g id="Layer_x0020_1">
  <metadata id="CorelCorpID_0Corel-Layer"/>
  <g id="_316561152">
   <circle class="fil0" cx="256" cy="256" r="255"/>
   <path class="fil1" d="M261 236l201 0c1,5 2,10 3,17 1,6 1,13 1,19 0,26 -4,51 -12,75 -8,23 -21,44 -38,62 -18,20 -40,35 -66,45 -25,11 -55,16 -87,16 -30,0 -58,-5 -85,-16 -26,-10 -49,-25 -68,-44 -20,-19 -35,-42 -47,-68 -11,-26 -17,-55 -17,-86 0,-31 6,-60 17,-86 12,-26 27,-49 47,-68 19,-19 42,-34 68,-44 27,-11 55,-16 85,-16 33,0 63,5 89,17 26,11 48,27 67,47l-53 53c-14,-15 -28,-25 -45,-33 -16,-7 -36,-11 -59,-11 -19,0 -36,3 -53,10 -17,7 -32,16 -44,28 -13,13 -23,27 -31,45 -7,17 -11,37 -11,58 0,21 4,41 11,58 8,18 18,32 31,45 13,12 27,21 44,28 17,7 35,10 54,10 22,0 40,-3 55,-9 16,-7 28,-15 39,-25 8,-7 14,-15 20,-26 6,-10 10,-22 13,-35l-129 0 0 -66z"/>
  </g>
 </g>
</svg>
