<?xml version="1.0" encoding="UTF-8"?>
<!DOCTYPE svg PUBLIC "-//W3C//DTD SVG 1.1//EN" "http://www.w3.org/Graphics/SVG/1.1/DTD/svg11.dtd">
<!-- Creator: CorelDRAW X7 -->
<svg xmlns="http://www.w3.org/2000/svg" xml:space="preserve" width="1520px" height="450px" version="1.1" style="shape-rendering:geometricPrecision; text-rendering:geometricPrecision; image-rendering:optimizeQuality; fill-rule:evenodd; clip-rule:evenodd"
viewBox="0 0 1520 450"
 xmlns:xlink="http://www.w3.org/1999/xlink">
 <defs>
  <style type="text/css">
   <![CDATA[
    .fil0 {fill:#003AA6}
    .fil3 {fill:#009E54}
    .fil2 {fill:#EBBE09}
    .fil1 {fill:#ED1118}
   ]]>
  </style>
 </defs>
 <g id="Layer_x0020_1">
  <metadata id="CorelCorpID_0Corel-Layer"/>
  <path class="fil0" d="M174 159l161 0c1,4 2,9 3,14 0,5 1,10 1,15 0,21 -4,41 -10,60 -6,19 -17,35 -30,50 -15,16 -33,28 -53,36 -21,9 -44,13 -70,13 -24,0 -47,-4 -68,-13 -21,-8 -39,-20 -55,-36 -15,-15 -28,-33 -37,-54 -9,-21 -14,-44 -14,-69 0,-24 5,-47 14,-68 9,-21 22,-39 37,-54 16,-16 34,-28 55,-36 21,-9 44,-13 68,-13 26,0 50,4 71,14 21,9 39,22 54,38l-43 41c-10,-11 -22,-19 -35,-25 -14,-6 -29,-9 -48,-9 -15,0 -29,2 -42,8 -14,5 -26,13 -36,22 -10,10 -18,22 -24,36 -6,14 -9,29 -9,46 0,18 3,33 9,47 6,14 14,26 25,36 10,9 22,17 35,22 14,6 28,8 43,8 18,0 32,-2 44,-7 13,-5 23,-12 31,-20 7,-5 12,-12 16,-21 5,-8 8,-17 11,-28l-104 0 0 -53zm839 287c-16,0 -31,-2 -43,-6 -12,-4 -23,-10 -32,-16 -9,-7 -17,-14 -23,-22 -6,-8 -11,-16 -13,-24l57 -23c4,12 11,21 21,28 10,7 21,10 33,10 19,0 33,-6 45,-19 11,-12 16,-29 16,-50l0 -16 -4 0c-7,10 -16,18 -27,23 -12,6 -25,9 -41,9 -13,0 -27,-3 -39,-8 -13,-6 -24,-14 -34,-24 -10,-10 -18,-22 -24,-36 -6,-15 -9,-31 -9,-48 0,-18 3,-34 9,-48 6,-14 14,-27 24,-37 10,-10 21,-18 34,-23 12,-6 26,-8 39,-8 16,0 29,2 41,8 11,6 20,13 27,23l4 0 0 -24 57 0 0 209c0,19 -3,36 -8,51 -6,15 -14,28 -25,38 -10,11 -23,19 -37,25 -15,5 -31,8 -48,8zm2 -160c7,0 14,-2 22,-4 7,-3 13,-7 19,-12 5,-6 10,-12 13,-20 3,-7 5,-16 5,-26 0,-10 -2,-19 -5,-27 -3,-8 -8,-14 -13,-19 -6,-6 -12,-10 -19,-12 -8,-3 -15,-4 -22,-4 -7,0 -15,1 -22,4 -7,2 -13,6 -19,12 -5,5 -9,12 -13,19 -3,8 -5,17 -5,27 0,10 2,19 5,26 4,8 8,14 13,20 6,5 12,9 19,12 7,2 15,4 22,4z"/>
  <path class="fil1" d="M1398 292c8,0 15,-2 23,-5 7,-3 13,-7 19,-12 5,-6 10,-13 13,-21 3,-8 5,-17 5,-27 0,-10 -2,-19 -5,-27 -3,-8 -8,-14 -13,-20 -6,-5 -12,-10 -19,-13 -8,-2 -15,-4 -23,-4 -8,0 -15,2 -22,4 -7,3 -13,8 -19,13 -5,6 -10,12 -13,20 -3,8 -5,17 -5,27 0,10 2,19 5,27 3,8 8,15 13,21 6,5 12,9 19,12 7,3 14,5 22,5zm0 -184c18,0 34,3 48,9 15,5 27,14 38,24 10,11 19,23 25,38 6,15 9,31 9,48 0,18 -3,34 -9,48 -6,15 -15,28 -25,38 -11,11 -23,19 -38,25 -14,6 -30,9 -48,9 -17,0 -33,-3 -48,-9 -14,-6 -27,-14 -37,-25 -11,-10 -19,-23 -25,-38 -6,-14 -9,-30 -9,-48 0,-17 3,-33 9,-48 6,-15 14,-27 25,-38 10,-10 23,-19 37,-24 15,-6 31,-9 48,-9z"/>
  <path class="fil1" d="M487 292c7,0 15,-2 22,-5 7,-3 14,-7 19,-12 6,-6 10,-13 13,-21 3,-8 5,-17 5,-27 0,-10 -2,-19 -5,-27 -3,-8 -7,-14 -13,-20 -5,-5 -12,-10 -19,-13 -7,-2 -15,-4 -22,-4 -8,0 -16,2 -23,4 -7,3 -13,8 -18,13 -6,6 -10,12 -14,20 -3,8 -4,17 -4,27 0,10 1,19 4,27 4,8 8,15 14,21 5,5 11,9 18,12 7,3 15,5 23,5zm0 -184c17,0 33,3 48,9 14,5 27,14 37,24 11,11 19,23 25,38 6,15 9,31 9,48 0,18 -3,34 -9,48 -6,15 -14,28 -25,38 -10,11 -23,19 -37,25 -15,6 -31,9 -48,9 -18,0 -34,-3 -48,-9 -15,-6 -27,-14 -38,-25 -10,-10 -19,-23 -25,-38 -5,-14 -8,-30 -8,-48 0,-17 3,-33 8,-48 6,-15 15,-27 25,-38 11,-10 23,-19 38,-24 14,-6 30,-9 48,-9z"/>
  <path class="fil2" d="M751 108c17,0 33,3 48,9 15,5 27,14 38,24 10,11 18,23 24,38 6,15 9,31 9,48 0,18 -3,34 -9,48 -6,15 -14,28 -24,38 -11,11 -23,19 -38,25 -15,6 -31,9 -48,9 -17,0 -33,-3 -48,-9 -14,-6 -27,-14 -38,-25 -10,-10 -18,-23 -24,-38 -6,-14 -9,-30 -9,-48 0,-17 3,-33 9,-48 6,-15 14,-27 24,-38 11,-10 24,-19 38,-24 15,-6 31,-9 48,-9zm0 184c8,0 15,-2 22,-5 7,-3 14,-7 19,-12 6,-6 10,-13 13,-21 4,-8 5,-17 5,-27 0,-10 -1,-19 -5,-27 -3,-8 -7,-14 -13,-20 -5,-5 -12,-10 -19,-13 -7,-2 -14,-4 -22,-4 -8,0 -15,2 -22,4 -7,3 -14,8 -19,13 -6,6 -10,12 -13,20 -4,8 -5,17 -5,27 0,10 1,19 5,27 3,8 7,15 13,21 5,5 12,9 19,12 7,3 14,5 22,5z"/>
  <polygon class="fil3" points="1183,340 1183,11 1243,11 1243,340 "/>
 </g>
</svg>
