<?xml version="1.0" encoding="UTF-8"?>
<!DOCTYPE svg PUBLIC "-//W3C//DTD SVG 1.1//EN" "http://www.w3.org/Graphics/SVG/1.1/DTD/svg11.dtd">
<!-- Creator: CorelDRAW X7 -->
<svg xmlns="http://www.w3.org/2000/svg" xml:space="preserve" width="1475px" height="455px" version="1.1" style="shape-rendering:geometricPrecision; text-rendering:geometricPrecision; image-rendering:optimizeQuality; fill-rule:evenodd; clip-rule:evenodd"
viewBox="0 0 1475 455"
 xmlns:xlink="http://www.w3.org/1999/xlink">
 <defs>
  <style type="text/css">
   <![CDATA[
    .fil0 {fill:white}
   ]]>
  </style>
 </defs>
 <g id="Layer_x0020_1">
  <metadata id="CorelCorpID_0Corel-Layer"/>
  <g id="_321924120">
   <polygon class="fil0" points="1206,14 1206,342 1206,347 1201,347 1159,347 1154,347 1154,342 1154,14 1154,9 1159,9 1201,9 1206,9 "/>
   <path class="fil0" d="M672 230c0,23 6,41 20,55 6,7 13,12 22,16 8,3 17,5 26,5 10,0 19,-2 27,-5 8,-4 15,-9 22,-16 6,-7 11,-15 15,-24 3,-9 5,-20 5,-31 0,-12 -2,-22 -5,-31 -4,-9 -9,-17 -15,-24 -7,-7 -14,-13 -22,-16 -8,-4 -17,-5 -27,-5 -9,0 -18,1 -26,5 -8,3 -16,9 -22,16 -7,7 -12,15 -15,24 -3,9 -5,19 -5,31zm-52 0c0,-18 2,-34 8,-49 6,-15 14,-29 26,-40l0 0c11,-12 24,-21 39,-27 14,-6 30,-9 47,-9 35,0 64,12 86,36 12,11 20,25 26,40 6,15 9,31 9,49 0,36 -12,66 -35,89 -11,12 -24,21 -38,27 -15,6 -30,9 -48,9 -34,0 -63,-12 -86,-36l0 0c-12,-12 -20,-25 -26,-40 -6,-15 -8,-31 -8,-49z"/>
   <path class="fil0" d="M1284 230c0,23 7,41 20,55 7,7 14,12 22,16 8,3 17,5 27,5 9,0 18,-2 26,-5 8,-4 16,-9 22,-16 7,-7 12,-15 15,-24 3,-9 5,-20 5,-31 0,-12 -2,-22 -5,-31 -3,-9 -8,-17 -15,-24 -6,-7 -14,-13 -22,-16 -8,-4 -17,-5 -26,-5 -10,0 -19,1 -27,5 -8,3 -15,9 -22,16 -7,7 -11,15 -15,24 -3,9 -5,19 -5,31zm-52 0c0,-18 3,-34 9,-49 5,-15 14,-29 25,-40l0 0c12,-12 25,-21 39,-27 15,-6 30,-9 48,-9 34,0 63,12 86,36 11,11 20,25 26,40 5,15 8,31 8,49 0,36 -11,66 -34,89 -11,12 -24,21 -39,27 -14,6 -30,9 -47,9 -35,0 -64,-12 -87,-36l0 0c-11,-12 -20,-25 -25,-40 -6,-15 -9,-31 -9,-49z"/>
   <path class="fil0" d="M415 230c0,23 7,41 20,55 6,7 14,12 22,16 8,3 17,5 26,5 10,0 19,-2 27,-5 8,-4 15,-9 22,-16 7,-7 12,-15 15,-24 3,-9 5,-20 5,-31 0,-12 -2,-22 -5,-31 -3,-9 -8,-17 -15,-24 -7,-7 -14,-13 -22,-16 -8,-4 -17,-5 -27,-5 -9,0 -18,1 -26,5 -8,3 -16,9 -22,16 -7,7 -12,15 -15,24 -3,9 -5,19 -5,31zm-52 0c0,-18 3,-34 8,-49 6,-15 14,-29 26,-40l0 0c11,-12 24,-21 39,-27 14,-6 30,-9 47,-9 35,0 64,12 87,36 11,11 20,25 25,40 6,15 9,31 9,49 0,36 -12,66 -34,89 -12,12 -25,21 -39,27 -15,6 -30,9 -48,9 -34,0 -63,-12 -86,-36l0 0c-12,-12 -20,-25 -26,-40 -5,-15 -8,-31 -8,-49z"/>
   <path class="fil0" d="M994 454c-6,0 -13,-1 -19,-2 -6,0 -12,-2 -18,-3 -6,-2 -11,-4 -16,-6 -5,-3 -10,-5 -15,-9 -5,-3 -9,-6 -13,-10 -4,-3 -8,-7 -11,-11 -4,-4 -7,-9 -9,-14 -3,-4 -5,-9 -7,-14l-2 -5 5 -2 40 -16 5 -2 1 5c2,6 5,11 9,16 4,5 8,9 13,13 6,4 11,6 17,8 6,2 13,3 20,3 11,0 20,-2 29,-5 8,-3 15,-8 21,-14 6,-6 10,-14 13,-23 3,-9 5,-19 5,-30l0 -10c-2,3 -5,5 -8,8 -5,5 -12,9 -19,13 -7,3 -15,6 -22,8 -8,2 -16,3 -25,3 -15,0 -29,-3 -43,-10 -13,-6 -25,-15 -36,-26l0 -1c-22,-24 -32,-54 -32,-88 0,-35 10,-64 32,-88l0 0c11,-13 23,-22 36,-28 14,-6 28,-9 43,-9 17,0 33,4 47,11 7,4 14,8 19,13 3,2 6,5 8,7l0 -19 0 -5 5 0 40 0 5 0 0 5 0 216c0,18 -2,35 -8,50 -5,14 -13,27 -24,38 -11,11 -24,19 -38,24 -14,6 -30,9 -48,9zm1 -148c10,0 19,-2 27,-5 7,-4 14,-9 20,-16l1 0c6,-7 11,-15 14,-24 3,-9 5,-20 5,-31 0,-11 -2,-22 -5,-31 -3,-9 -8,-17 -14,-24l-1 0c-6,-7 -13,-13 -21,-16 -7,-4 -16,-5 -26,-5 -9,0 -18,1 -25,5 -8,3 -15,9 -22,16 -6,7 -11,15 -14,24 -4,9 -5,20 -5,31 0,11 1,21 5,31 3,9 8,17 14,24l0 0c7,7 14,12 22,16 7,3 16,5 25,5z"/>
   <path class="fil0" d="M344 191c0,48 -14,85 -42,113l0 0c-16,17 -34,30 -55,38 -21,8 -44,13 -70,13 -24,0 -47,-5 -68,-13 -20,-9 -39,-22 -56,-38 -17,-17 -30,-36 -39,-57 -8,-21 -12,-44 -12,-69 0,-50 17,-92 51,-126 17,-17 36,-29 56,-38 21,-8 44,-13 68,-13 13,0 25,1 36,4 12,2 24,5 35,10 11,4 21,9 30,16 9,6 17,13 24,21l3 4 -3 3 -30 30 -4 4 -4 -4c-4,-6 -10,-11 -16,-16 -6,-4 -13,-8 -21,-11 -8,-4 -16,-6 -24,-8 -8,-1 -17,-2 -26,-2 -17,0 -33,3 -47,9 -15,6 -28,14 -40,26l0 0c-12,12 -20,26 -26,41 -6,15 -9,32 -9,50 0,18 3,35 9,50 6,15 14,28 26,40l0 0c12,12 25,21 40,27 14,6 30,9 47,9 16,0 31,-2 44,-6 13,-5 24,-11 35,-20 10,-9 18,-19 24,-31 6,-11 9,-23 11,-36l-114 0 -5 0 0 -5 0 -40 0 -5 5 0 160 0 4 0 0 5c1,4 2,8 2,13 1,4 1,8 1,12z"/>
  </g>
 </g>
</svg>
